<svg xmlns="http://www.w3.org/2000/svg" viewBox="0 0 244.90193935272887 60">
  <g fill="#A67C52" transform="matrix(5.759321212813602,0,0,5.759321212813602,-4.780240529606033,-18.94816657045608)">
    <path d="M2.72 3.71L2.72 7.11L4.65 4.63Q5.19 3.85 5.91 3.67Q6.62 3.49 7.62 3.71L7.62 3.71L5.81 6.02L4.19 8.09L7.95 13.52L5.74 13.52L2.72 9.16L2.72 13.52L0.83 13.52L0.83 3.71L2.72 3.71ZM13.45 13.52L13.45 12.73Q12.92 13.24 12.30 13.48Q11.68 13.72 11.05 13.70Q10.42 13.68 9.82 13.41Q9.23 13.15 8.77 12.65Q8.32 12.15 8.04 11.46Q7.77 10.77 7.77 9.88L7.77 9.88Q7.77 9.04 8.06 8.33Q8.36 7.62 8.86 7.11Q9.35 6.61 9.99 6.34Q10.63 6.06 11.31 6.09L11.31 6.09Q11.98 6.12 12.39 6.39Q12.80 6.66 12.98 7.03Q13.17 7.39 13.18 7.76Q13.19 8.13 13.06 8.36L13.06 8.36Q12.82 8.01 12.39 7.89Q11.96 7.77 11.55 7.77L11.55 7.77Q10.91 7.77 10.47 8.09Q10.04 8.40 9.81 8.88Q9.59 9.35 9.58 9.91Q9.58 10.46 9.79 10.93Q10.01 11.41 10.45 11.73Q10.89 12.04 11.55 12.04L11.55 12.04Q12.11 12.04 12.47 11.79Q12.84 11.54 13.05 11.14Q13.27 10.74 13.36 10.24Q13.45 9.74 13.45 9.25L13.45 9.25L13.45 7.04L13.45 6.27L15.27 6.27L15.27 13.52L13.45 13.52ZM16.95 13.52L16.95 7.74Q16.98 7.32 17.13 7.04Q17.28 6.76 17.51 6.59Q17.75 6.43 18.07 6.35Q18.38 6.27 18.76 6.27L18.76 6.27L18.76 13.52L16.95 13.52ZM17.86 3.29L17.86 3.29Q18.34 3.29 18.68 3.64L18.68 3.64Q19.03 3.98 19.03 4.47L19.03 4.47Q19.03 4.96 18.69 5.31L18.69 5.31Q18.49 5.50 18.23 5.58Q17.98 5.66 17.72 5.73Q17.46 5.81 17.24 5.92Q17.02 6.02 16.94 6.26L16.94 6.26Q16.87 6.03 16.79 5.68Q16.72 5.33 16.70 4.96Q16.67 4.58 16.74 4.22Q16.80 3.86 17.04 3.63L17.04 3.63Q17.37 3.29 17.86 3.29ZM22.23 6.27L22.23 7.11Q22.34 6.86 22.57 6.68Q22.81 6.50 23.09 6.37Q23.37 6.24 23.66 6.17Q23.95 6.10 24.21 6.09L24.21 6.09Q24.74 6.06 25.26 6.24Q25.77 6.41 26.21 6.85L26.21 6.85Q26.84 7.50 26.84 8.74L26.84 8.74L26.84 13.52L25.05 13.52Q25.05 13.29 25.05 12.88Q25.06 12.47 25.06 11.99Q25.06 11.51 25.06 10.99Q25.06 10.47 25.05 10.01Q25.03 9.55 25.00 9.18Q24.98 8.82 24.93 8.65L24.93 8.65Q24.82 8.20 24.51 7.98Q24.19 7.76 23.83 7.76L23.83 7.76Q23.35 7.76 23.09 8.02Q22.82 8.27 22.82 8.69L22.82 8.69Q22.65 8.64 22.48 8.46Q22.32 8.29 22.23 8.09L22.23 8.09L22.23 8.47L22.23 13.52L20.43 13.52L20.43 6.27L22.23 6.27ZM28.24 6.29L30.07 6.29L30.07 9.76Q30.07 10.01 30.08 10.30Q30.09 10.58 30.14 10.86Q30.18 11.13 30.30 11.37Q30.42 11.61 30.66 11.77L30.66 11.77Q30.81 11.89 31.02 11.94Q31.22 12.00 31.43 12.00Q31.64 12.00 31.84 11.94Q32.03 11.89 32.20 11.77L32.20 11.77Q32.44 11.62 32.56 11.39Q32.68 11.16 32.73 10.89Q32.77 10.63 32.77 10.35Q32.77 10.07 32.77 9.81L32.77 9.81L32.77 7.73Q32.76 6.97 33.26 6.60Q33.77 6.23 34.58 6.26L34.58 6.26L34.58 9.34Q34.59 10.29 34.52 10.93Q34.44 11.56 34.29 11.93L34.29 11.93Q33.88 12.87 33.14 13.27Q32.40 13.68 31.40 13.68L31.40 13.68Q30.32 13.68 29.55 13.20Q28.78 12.73 28.45 11.68L28.45 11.68Q28.35 11.35 28.29 10.80Q28.24 10.25 28.24 9.59L28.24 9.59L28.24 6.29ZM39.51 6.10L39.51 6.10Q40.61 6.10 41.47 6.64Q42.34 7.17 42.83 7.99Q43.32 8.82 43.35 9.83Q43.39 10.84 42.84 11.80L42.84 11.80Q42.38 12.60 41.64 13.08Q40.89 13.55 40.05 13.67Q39.21 13.79 38.37 13.53Q37.52 13.27 36.85 12.60L36.85 12.60Q36.09 11.83 35.84 10.82Q35.59 9.81 35.88 8.81L35.88 8.81Q36.01 8.40 36.29 8.13Q36.58 7.87 36.95 7.74Q37.31 7.62 37.70 7.63Q38.09 7.64 38.43 7.79Q38.77 7.94 39.00 8.21Q39.23 8.48 39.27 8.88L39.27 8.88Q39.06 8.72 38.77 8.71Q38.47 8.71 38.20 8.84Q37.93 8.97 37.74 9.25Q37.55 9.52 37.55 9.93L37.55 9.93Q37.55 10.63 37.84 11.09Q38.14 11.55 38.58 11.78Q39.02 12.01 39.53 12.01Q40.04 12.01 40.48 11.77Q40.92 11.54 41.22 11.07Q41.51 10.60 41.51 9.90L41.51 9.90Q41.51 9.35 41.31 8.93Q41.12 8.51 40.79 8.24Q40.46 7.97 40.03 7.86Q39.59 7.76 39.10 7.85L39.10 7.85Q38.89 7.60 38.59 7.46Q38.29 7.31 37.94 7.26Q37.59 7.21 37.24 7.27Q36.89 7.34 36.58 7.52L36.58 7.52Q37.14 6.85 37.88 6.48Q38.63 6.10 39.51 6.10Z"></path>
  </g>
</svg>
