<svg width="820" height="880" viewBox="0 0 820 880" fill="none" xmlns="http://www.w3.org/2000/svg">
<g clip-path="url(#clip0_2_332)">
<path d="M170.959 308.137L172.388 303.791C173.179 301.396 174.492 298.943 175.322 298.344C176.133 297.745 176.23 296.664 175.515 295.968C174.338 294.79 176.905 290.174 184.222 280.265C186.616 277.02 186.616 276.383 184.203 275.436C182.697 274.818 181.751 272.81 182.137 270.955C182.851 267.401 182.137 266.706 179.975 268.869C179.26 269.565 178.681 267.826 178.681 259.849C184.415 230.336 202.408 193.714 221.076 167.948C285.402 79.1954 407.858 43.2501 507.088 83.9662L526.181 91.8081L520.872 93.0443C511.065 95.3042 510.254 96.6176 513.189 105.213C516.76 115.72 524.038 118.444 537.88 114.407C544.058 112.61 547.244 110.737 546.394 109.443C545.661 108.284 546.008 106.893 549.348 105.329C580.855 125.59 613.616 160.241 627.285 182.338C655.702 228.327 674.95 297.224 662.768 309.412C659.177 313.004 563.094 345.975 523.401 357.236C517.224 358.993 516.529 358.472 476.141 321.735C427.916 277.87 429.403 278.372 402.066 296.586C384.652 308.176 370.482 309.933 368.32 300.759C365.984 290.811 391.602 264.89 413.437 255.136C442.859 242.002 442.936 242.002 477.879 254.093C507.841 264.465 507.841 264.466 533.884 255.696C566.453 244.706 566.916 243.76 551.066 220.369C486.257 124.779 342.798 127.444 284.437 225.333C272.989 244.532 273.51 245.228 306.986 255.812C333.917 264.35 333.917 264.35 360.076 254.267C389.788 242.813 398.687 240.882 405.56 244.359C411.854 247.546 411.989 247.352 399.73 253.012C380.81 261.761 355.346 295.138 360.308 304.679C367.065 317.736 384.054 317.485 404.653 304.042C429.441 287.856 426.951 286.91 475.273 331.064C517.359 369.52 520.312 373.132 516.007 380.839C510.853 390.071 500.814 386.517 478.4 367.531L472.126 362.219L467.106 356.425C461.952 350.456 456.72 348.776 456.623 353.044C456.604 354.377 459.635 357.854 470.195 366.082C482.918 377.053 487.3 381.399 488.149 382.828C488.999 384.238 491.026 385.397 492.667 385.397C494.289 385.397 496.605 388.005 497.821 391.211C501.084 399.826 492.705 408.112 482.763 406.084L475.987 404.712L459.23 389.743C447.125 378.946 442.202 375.585 441.526 377.671C440.909 379.564 446.411 385.455 474.056 408.575C467.666 426.519 458.959 425.09 440.561 410.236C431.14 402.626 425.387 399.149 424.499 400.54C423.669 401.815 428.013 406.702 435.252 412.631C448.863 423.776 450.33 429.802 440.484 434.148C431.546 438.108 421.082 431.657 422.723 423.197C424.209 415.451 421.429 407.436 415.773 403.09C413.475 401.332 410.039 395.789 408.128 390.767C405.657 384.238 402.877 380.723 398.34 378.366C394.865 376.551 388.436 371.316 384.054 366.719C375.637 357.854 368.995 356.154 359.362 360.384C355.52 362.065 353.705 361.582 348.512 357.487C341.234 351.731 335.597 351.325 325.944 355.826C318.975 359.09 318.878 359.071 292.256 349.78C259.707 338.423 259.031 338.5 260.286 353.798C262.757 383.871 289.669 429.416 319.071 453.27C396.487 516.122 503.111 496.517 557.379 409.425C574.136 382.539 571.878 383.099 609.35 396.175C653.888 411.724 654.891 416.572 623.288 462.947C508.903 630.872 255.846 597.11 185.187 404.5C177.562 383.697 170.225 341.069 170.689 320.209L170.959 308.137ZM545.294 525.296C543.942 521.877 543.807 521.916 543.691 525.914C543.614 528.309 544.618 530.26 545.892 530.26C547.186 530.26 549.541 528.966 551.143 527.363C552.939 525.547 553.19 524.466 551.8 524.466C550.584 524.466 548.943 525.489 548.17 526.745C547.186 528.329 546.298 527.865 545.294 525.296ZM586.029 486.338C586.029 486.608 585.604 488.346 585.063 490.201C584.542 492.055 584.31 493.446 584.581 493.291C584.851 493.156 587.148 492.634 589.716 492.152C592.361 491.649 598.596 486.28 604.195 479.655C614.002 468.046 614.002 468.046 605.817 470.248C598.307 472.276 595.43 474.034 599.06 474.382C599.851 474.459 598.944 475.135 597.033 475.888C595.121 476.642 594.176 477.897 594.928 478.65C595.701 479.423 594.446 480.041 592.148 480.041C587.09 480.041 586.82 481.683 591.338 484.986C594.967 487.632 593.693 490.645 589.523 489.254C587.592 488.617 587.67 488.153 589.89 487.284C592.206 486.376 592.11 486.106 589.407 485.99C587.554 485.913 586.029 486.067 586.029 486.338ZM622.941 446.974C620.933 448.982 619.64 451.146 620.045 451.802C620.45 452.459 622.516 451.3 624.64 449.214C626.763 447.128 628.501 444.096 628.501 442.454C628.501 440.812 628.076 439.479 627.535 439.479C627.014 439.479 626.57 440.349 626.57 441.411C626.57 442.473 624.929 444.984 622.941 446.974ZM635.625 428.586C634.466 427.427 632.362 430.305 632.362 433.047C632.362 434.457 632.709 435.616 633.115 435.616C633.54 435.616 634.428 434.187 635.103 432.449C635.76 430.691 636.011 428.953 635.625 428.586ZM496.895 95.6711C492.899 95.6711 492.474 97.3709 495.292 102.084C496.354 103.861 497.802 105.329 498.516 105.329C499.211 105.329 499.868 105.116 499.964 104.846C501.432 100.442 499.829 95.6711 496.895 95.6711ZM492.956 84.1207C491.122 84.1014 489.173 84.9513 488.613 86.0136C488.034 87.0759 488.227 87.9258 489.018 87.9065C489.81 87.9065 491.779 87.0373 493.362 86.0136C495.852 84.4105 495.794 84.1401 492.956 84.1207ZM473.072 80.5668C472.608 81.0303 473.94 82.0154 476.045 82.7494C478.13 83.4833 481.161 84.0821 482.744 84.0821C484.346 84.0821 485.64 83.6185 485.64 83.0777C485.64 81.745 474.172 79.4465 473.072 80.5668Z" fill="#0F442D"/>
<path d="M170.959 308.137L172.388 303.791C173.179 301.396 174.492 298.943 175.322 298.344C176.133 297.745 176.23 296.664 175.515 295.968C174.338 294.79 176.905 290.174 184.222 280.265C186.616 277.02 186.616 276.383 184.203 275.436C182.697 274.818 181.751 272.81 182.137 270.955C182.851 267.401 182.137 266.706 179.975 268.869C179.26 269.565 178.681 267.826 178.681 259.849C184.415 230.336 202.408 193.714 221.076 167.948C285.402 79.1954 407.858 43.2501 507.088 83.9662L526.181 91.8081L520.872 93.0443C511.065 95.3042 510.254 96.6176 513.189 105.213C516.76 115.72 524.038 118.444 537.88 114.407C544.058 112.61 547.244 110.737 546.394 109.443C545.661 108.284 546.008 106.893 549.348 105.329C580.855 125.59 613.616 160.241 627.285 182.338C655.702 228.327 674.95 297.224 662.768 309.412C659.177 313.004 563.094 345.975 523.401 357.236C517.224 358.993 516.529 358.472 476.141 321.735C427.916 277.87 429.403 278.372 402.066 296.586C384.652 308.176 370.482 309.933 368.32 300.759C365.984 290.811 391.602 264.89 413.437 255.136C442.859 242.002 442.936 242.002 477.879 254.093C507.841 264.465 507.841 264.466 533.884 255.696C566.453 244.706 566.916 243.76 551.066 220.369C486.257 124.779 342.798 127.444 284.437 225.333C272.989 244.532 273.51 245.228 306.986 255.812C333.917 264.35 333.917 264.35 360.076 254.267C389.788 242.813 398.687 240.882 405.56 244.359C411.854 247.546 411.989 247.352 399.73 253.012C380.81 261.761 355.346 295.138 360.308 304.679C367.065 317.736 384.054 317.485 404.653 304.042C429.441 287.856 426.951 286.91 475.273 331.064C517.359 369.52 520.312 373.132 516.007 380.839C510.853 390.071 500.814 386.517 478.4 367.531L472.126 362.219L467.106 356.425C461.952 350.456 456.72 348.776 456.623 353.044C456.604 354.377 459.635 357.854 470.195 366.082C482.918 377.053 487.3 381.399 488.149 382.828C488.999 384.238 491.026 385.397 492.667 385.397C494.289 385.397 496.605 388.005 497.821 391.211C501.084 399.826 492.705 408.112 482.763 406.084L475.987 404.712L459.23 389.743C447.125 378.946 442.202 375.585 441.526 377.671C440.909 379.564 446.411 385.455 474.056 408.575C467.666 426.519 458.959 425.09 440.561 410.236C431.14 402.626 425.387 399.149 424.499 400.54C423.669 401.815 428.013 406.702 435.252 412.631C448.863 423.776 450.33 429.802 440.484 434.148C431.546 438.108 421.082 431.657 422.723 423.197C424.209 415.451 421.429 407.436 415.773 403.09C413.475 401.332 410.039 395.789 408.128 390.767C405.657 384.238 402.877 380.723 398.34 378.366C394.865 376.551 388.436 371.316 384.054 366.719C375.637 357.854 368.995 356.154 359.362 360.384C355.52 362.065 353.705 361.582 348.512 357.487C341.234 351.731 335.597 351.325 325.944 355.826C318.975 359.09 318.878 359.071 292.256 349.78C259.707 338.423 259.031 338.5 260.286 353.798C262.757 383.871 289.669 429.416 319.071 453.27C396.487 516.122 503.111 496.517 557.379 409.425C574.136 382.539 571.878 383.099 609.35 396.175C653.888 411.724 654.891 416.572 623.288 462.947C508.903 630.872 255.846 597.11 185.187 404.5C177.562 383.697 170.225 341.069 170.689 320.209L170.959 308.137ZM545.294 525.296C543.942 521.877 543.807 521.916 543.691 525.914C543.614 528.309 544.618 530.26 545.892 530.26C547.186 530.26 549.541 528.966 551.143 527.363C552.939 525.547 553.19 524.466 551.8 524.466C550.584 524.466 548.943 525.489 548.17 526.745C547.186 528.329 546.298 527.865 545.294 525.296ZM586.029 486.338C586.029 486.608 585.604 488.346 585.063 490.201C584.542 492.055 584.31 493.446 584.581 493.291C584.851 493.156 587.148 492.634 589.716 492.152C592.361 491.649 598.596 486.28 604.195 479.655C614.002 468.046 614.002 468.046 605.817 470.248C598.307 472.276 595.43 474.034 599.06 474.382C599.851 474.459 598.944 475.135 597.033 475.888C595.121 476.642 594.176 477.897 594.928 478.65C595.701 479.423 594.446 480.041 592.148 480.041C587.09 480.041 586.82 481.683 591.338 484.986C594.967 487.632 593.693 490.645 589.523 489.254C587.592 488.617 587.67 488.153 589.89 487.284C592.206 486.376 592.11 486.106 589.407 485.99C587.554 485.913 586.029 486.067 586.029 486.338ZM622.941 446.974C620.933 448.982 619.64 451.146 620.045 451.802C620.45 452.459 622.516 451.3 624.64 449.214C626.763 447.128 628.501 444.096 628.501 442.454C628.501 440.812 628.076 439.479 627.535 439.479C627.014 439.479 626.57 440.349 626.57 441.411C626.57 442.473 624.929 444.984 622.941 446.974ZM635.625 428.586C634.466 427.427 632.362 430.305 632.362 433.047C632.362 434.457 632.709 435.616 633.115 435.616C633.54 435.616 634.428 434.187 635.103 432.449C635.76 430.691 636.011 428.953 635.625 428.586ZM496.895 95.6711C492.899 95.6711 492.474 97.3709 495.292 102.084C496.354 103.861 497.802 105.329 498.516 105.329C499.211 105.329 499.868 105.116 499.964 104.846C501.432 100.442 499.829 95.6711 496.895 95.6711ZM492.956 84.1207C491.122 84.1014 489.173 84.9513 488.613 86.0136C488.034 87.0759 488.227 87.9258 489.018 87.9065C489.81 87.9065 491.779 87.0373 493.362 86.0136C495.852 84.4105 495.794 84.1401 492.956 84.1207ZM473.072 80.5668C472.608 81.0303 473.94 82.0154 476.045 82.7494C478.13 83.4833 481.161 84.0821 482.744 84.0821C484.346 84.0821 485.64 83.6185 485.64 83.0777C485.64 81.745 474.172 79.4465 473.072 80.5668Z" fill="#0F442D"/>
<path d="M170.959 308.137L172.388 303.791C173.179 301.396 174.492 298.943 175.322 298.344C176.133 297.745 176.23 296.664 175.515 295.968C174.338 294.79 176.905 290.174 184.222 280.265C186.616 277.02 186.616 276.383 184.203 275.436C182.697 274.818 181.751 272.81 182.137 270.955C182.851 267.401 182.137 266.706 179.975 268.869C179.26 269.565 178.681 267.826 178.681 259.849C184.415 230.336 202.408 193.714 221.076 167.948C285.402 79.1954 407.858 43.2501 507.088 83.9662L526.181 91.8081L520.872 93.0443C511.065 95.3042 510.254 96.6176 513.189 105.213C516.76 115.72 524.038 118.444 537.88 114.407C544.058 112.61 547.244 110.737 546.394 109.443C545.661 108.284 546.008 106.893 549.348 105.329C580.855 125.59 613.616 160.241 627.285 182.338C655.702 228.327 674.95 297.224 662.768 309.412C659.177 313.004 563.094 345.975 523.401 357.236C517.224 358.993 516.529 358.472 476.141 321.735C427.916 277.87 429.403 278.372 402.066 296.586C384.652 308.176 370.482 309.933 368.32 300.759C365.984 290.811 391.602 264.89 413.437 255.136C442.859 242.002 442.936 242.002 477.879 254.093C507.841 264.465 507.841 264.466 533.884 255.696C566.453 244.706 566.916 243.76 551.066 220.369C486.257 124.779 342.798 127.444 284.437 225.333C272.989 244.532 273.51 245.228 306.986 255.812C333.917 264.35 333.917 264.35 360.076 254.267C389.788 242.813 398.687 240.882 405.56 244.359C411.854 247.546 411.989 247.352 399.73 253.012C380.81 261.761 355.346 295.138 360.308 304.679C367.065 317.736 384.054 317.485 404.653 304.042C429.441 287.856 426.951 286.91 475.273 331.064C517.359 369.52 520.312 373.132 516.007 380.839C510.853 390.071 500.814 386.517 478.4 367.531L472.126 362.219L467.106 356.425C461.952 350.456 456.72 348.776 456.623 353.044C456.604 354.377 459.635 357.854 470.195 366.082C482.918 377.053 487.3 381.399 488.149 382.828C488.999 384.238 491.026 385.397 492.667 385.397C494.289 385.397 496.605 388.005 497.821 391.211C501.084 399.826 492.705 408.112 482.763 406.084L475.987 404.712L459.23 389.743C447.125 378.946 442.202 375.585 441.526 377.671C440.909 379.564 446.411 385.455 474.056 408.575C467.666 426.519 458.959 425.09 440.561 410.236C431.14 402.626 425.387 399.149 424.499 400.54C423.669 401.815 428.013 406.702 435.252 412.631C448.863 423.776 450.33 429.802 440.484 434.148C431.546 438.108 421.082 431.657 422.723 423.197C424.209 415.451 421.429 407.436 415.773 403.09C413.475 401.332 410.039 395.789 408.128 390.767C405.657 384.238 402.877 380.723 398.34 378.366C394.865 376.551 388.436 371.316 384.054 366.719C375.637 357.854 368.995 356.154 359.362 360.384C355.52 362.065 353.705 361.582 348.512 357.487C341.234 351.731 335.597 351.325 325.944 355.826C318.975 359.09 318.878 359.071 292.256 349.78C259.707 338.423 259.031 338.5 260.286 353.798C262.757 383.871 289.669 429.416 319.071 453.27C396.487 516.122 503.111 496.517 557.379 409.425C574.136 382.539 571.878 383.099 609.35 396.175C653.888 411.724 654.891 416.572 623.288 462.947C508.903 630.872 255.846 597.11 185.187 404.5C177.562 383.697 170.225 341.069 170.689 320.209L170.959 308.137ZM545.294 525.296C543.942 521.877 543.807 521.916 543.691 525.914C543.614 528.309 544.618 530.26 545.892 530.26C547.186 530.26 549.541 528.966 551.143 527.363C552.939 525.547 553.19 524.466 551.8 524.466C550.584 524.466 548.943 525.489 548.17 526.745C547.186 528.329 546.298 527.865 545.294 525.296ZM586.029 486.338C586.029 486.608 585.604 488.346 585.063 490.201C584.542 492.055 584.31 493.446 584.581 493.291C584.851 493.156 587.148 492.634 589.716 492.152C592.361 491.649 598.596 486.28 604.195 479.655C614.002 468.046 614.002 468.046 605.817 470.248C598.307 472.276 595.43 474.034 599.06 474.382C599.851 474.459 598.944 475.135 597.033 475.888C595.121 476.642 594.176 477.897 594.928 478.65C595.701 479.423 594.446 480.041 592.148 480.041C587.09 480.041 586.82 481.683 591.338 484.986C594.967 487.632 593.693 490.645 589.523 489.254C587.592 488.617 587.67 488.153 589.89 487.284C592.206 486.376 592.11 486.106 589.407 485.99C587.554 485.913 586.029 486.067 586.029 486.338ZM622.941 446.974C620.933 448.982 619.64 451.146 620.045 451.802C620.45 452.459 622.516 451.3 624.64 449.214C626.763 447.128 628.501 444.096 628.501 442.454C628.501 440.812 628.076 439.479 627.535 439.479C627.014 439.479 626.57 440.349 626.57 441.411C626.57 442.473 624.929 444.984 622.941 446.974ZM635.625 428.586C634.466 427.427 632.362 430.305 632.362 433.047C632.362 434.457 632.709 435.616 633.115 435.616C633.54 435.616 634.428 434.187 635.103 432.449C635.76 430.691 636.011 428.953 635.625 428.586ZM496.895 95.6711C492.899 95.6711 492.474 97.3709 495.292 102.084C496.354 103.861 497.802 105.329 498.516 105.329C499.211 105.329 499.868 105.116 499.964 104.846C501.432 100.442 499.829 95.6711 496.895 95.6711ZM492.956 84.1207C491.122 84.1014 489.173 84.9513 488.613 86.0136C488.034 87.0759 488.227 87.9258 489.018 87.9065C489.81 87.9065 491.779 87.0373 493.362 86.0136C495.852 84.4105 495.794 84.1401 492.956 84.1207ZM473.072 80.5668C472.608 81.0303 473.94 82.0154 476.045 82.7494C478.13 83.4833 481.161 84.0821 482.744 84.0821C484.346 84.0821 485.64 83.6185 485.64 83.0777C485.64 81.745 474.172 79.4465 473.072 80.5668Z" fill="#0F442D"/>
<path d="M369.806 393.123L358.223 406.644C347.933 409.889 338.01 400.984 339.863 395.132C342.141 387.947 358.377 369.945 363.937 368.439C377.741 364.691 384.922 377.999 374.633 388.294L369.806 393.123Z" fill="#0F442D"/>
<path d="M362.084 406.644L371.737 396.986C390.058 381.206 402.915 385.262 399.247 397.759C393.224 418.31 366.93 430.189 363.571 413.887L362.084 406.644Z" fill="#0F442D"/>
<path d="M526.18 91.8081L549.347 105.329C546.007 106.893 545.66 108.284 546.393 109.443C547.243 110.737 544.057 112.61 537.88 114.407C524.038 118.444 516.759 115.72 513.188 105.213C510.253 96.6176 511.064 95.3041 520.871 93.0443L526.18 91.8081Z" fill="#356049"/>
<path d="M393.628 415.78C402.605 405.987 408.976 404.133 413.455 410.024C417.76 415.702 416.466 421.729 409.15 429.822C405.308 434.071 400.539 437.548 398.532 437.548C396.543 437.548 392.74 435.423 390.076 432.835C383.782 426.712 383.821 426.461 393.628 415.78Z" fill="#0F442D"/>
<path d="M326.445 365.58C338.279 352.813 353.53 365.02 343.569 379.274C341.87 381.689 338.395 384.49 335.847 385.494C332.468 386.827 329.862 386.537 326.368 384.432C319.977 380.588 319.997 372.534 326.445 365.58Z" fill="#0F442D"/>
<path d="M475.986 404.712L474.055 408.575C446.41 385.455 440.908 379.564 441.525 377.671C442.201 375.585 447.124 378.946 459.229 389.743L475.986 404.712Z" fill="#D8E2D3"/>
<path d="M170.959 308.137C170.36 304.39 172.098 293.535 174.434 281.579L178.681 259.849C178.681 267.826 179.26 269.565 179.974 268.869C182.137 266.706 182.851 267.402 182.137 270.956C181.751 272.81 182.697 274.819 184.202 275.437C186.616 276.383 186.616 277.02 184.222 280.265C176.905 290.174 174.337 294.79 175.515 295.969C176.229 296.664 176.133 297.746 175.322 298.344C174.492 298.943 173.179 301.396 172.387 303.791L170.959 308.137Z" fill="#356049"/>
<path d="M586.028 486.338C586.028 486.067 587.554 485.913 589.407 485.99C592.11 486.106 592.206 486.376 589.89 487.284C587.669 488.153 587.592 488.617 589.523 489.254C593.693 490.645 594.967 487.632 591.337 484.986C586.82 481.683 587.09 480.041 592.148 480.041C594.446 480.041 595.7 479.423 594.928 478.65C594.175 477.897 595.121 476.642 597.033 475.888C598.944 475.135 599.851 474.459 599.06 474.382C595.43 474.034 598.307 472.276 605.817 470.248C614.002 468.046 614.002 468.046 604.195 479.655C598.596 486.28 592.361 491.65 589.716 492.152C587.148 492.635 584.851 493.156 584.58 493.291C584.31 493.446 584.542 492.055 585.063 490.201C585.604 488.347 586.028 486.608 586.028 486.338Z" fill="#356049"/>
<path d="M472.125 362.219L470.195 366.082C459.635 357.854 456.604 354.377 456.623 353.045C456.72 348.776 461.951 350.456 467.106 356.425L472.125 362.219Z" fill="#D8E2D3"/>
<path d="M358.223 406.644L369.806 393.123L371.737 396.986L362.084 406.644H358.223Z" fill="#D8E2D3"/>
<path d="M496.894 95.6711C499.828 95.6711 501.431 100.442 499.963 104.846C499.867 105.116 499.211 105.329 498.516 105.329C497.801 105.329 496.353 103.861 495.292 102.084C492.473 97.3709 492.898 95.6711 496.894 95.6711Z" fill="#356049"/>
<path d="M622.941 446.974C624.929 444.984 626.57 442.473 626.57 441.411C626.57 440.349 627.014 439.479 627.536 439.479C628.076 439.479 628.501 440.812 628.501 442.454C628.501 444.096 626.763 447.128 624.64 449.214C622.516 451.3 620.45 452.459 620.045 451.803C619.64 451.146 620.933 448.983 622.941 446.974Z" fill="#356049"/>
<path d="M545.294 525.296C546.298 527.865 547.186 528.329 548.171 526.745C548.943 525.49 550.584 524.466 551.8 524.466C553.19 524.466 552.939 525.547 551.144 527.363C549.541 528.966 547.186 530.26 545.893 530.26C544.618 530.26 543.614 528.31 543.692 525.914C543.808 521.916 543.943 521.878 545.294 525.296Z" fill="#356049"/>
<path d="M473.071 80.5668C474.171 79.4465 485.638 81.745 485.638 83.0778C485.638 83.6186 484.345 84.0822 482.743 84.0822C481.16 84.0822 478.129 83.4834 476.044 82.7494C473.939 82.0154 472.607 81.0304 473.071 80.5668Z" fill="#356049"/>
<path d="M635.624 428.586C636.01 428.953 635.759 430.691 635.103 432.449C634.427 434.187 633.539 435.616 633.114 435.616C632.709 435.616 632.361 434.458 632.361 433.048C632.361 430.305 634.466 427.427 635.624 428.586Z" fill="#356049"/>
<path d="M492.955 84.1209C495.793 84.1402 495.851 84.4107 493.36 86.0138C491.777 87.0375 489.808 87.9067 489.016 87.9067C488.225 87.926 488.032 87.0761 488.611 86.0138C489.171 84.9515 491.121 84.1016 492.955 84.1209Z" fill="#356049"/>
</g>
<path d="M244.104 615.397L247.828 670.771H244.104C239.14 654.195 232.053 642.264 222.844 634.977C213.635 627.689 202.584 624.046 189.691 624.046C178.881 624.046 169.111 626.809 160.383 632.334C151.654 637.779 144.768 646.508 139.723 658.52C134.758 670.531 132.275 685.466 132.275 703.323C132.275 718.058 134.638 730.83 139.362 741.641C144.087 752.451 151.174 760.739 160.623 766.505C170.152 772.271 181.003 775.153 193.175 775.153C203.745 775.153 213.074 772.911 221.162 768.427C229.25 763.862 238.139 754.854 247.828 741.4L251.552 743.803C243.384 758.297 233.854 768.907 222.964 775.634C212.073 782.36 199.141 785.724 184.166 785.724C157.18 785.724 136.279 775.714 121.465 755.694C110.414 740.8 104.889 723.263 104.889 703.083C104.889 686.827 108.532 671.893 115.819 658.279C123.106 644.666 133.116 634.136 145.849 626.688C158.661 619.161 172.635 615.397 187.77 615.397C199.541 615.397 211.152 618.28 222.604 624.046C225.967 625.808 228.369 626.688 229.811 626.688C231.973 626.688 233.854 625.928 235.456 624.406C237.538 622.244 239.02 619.241 239.9 615.397H244.104ZM364.222 671.973V738.638C364.222 751.37 364.502 759.178 365.062 762.061C365.703 764.863 366.664 766.825 367.945 767.946C369.307 769.067 370.868 769.628 372.63 769.628C375.112 769.628 377.915 768.947 381.038 767.586L382.72 771.79L349.808 785.363H344.402V762.061C334.953 772.311 327.746 778.757 322.781 781.399C317.816 784.042 312.571 785.363 307.046 785.363C300.88 785.363 295.515 783.602 290.95 780.078C286.466 776.475 283.343 771.87 281.581 766.265C279.819 760.659 278.938 752.731 278.938 742.481V693.354C278.938 688.148 278.378 684.545 277.257 682.543C276.136 680.541 274.454 679.02 272.212 677.979C270.05 676.857 266.086 676.337 260.32 676.417V671.973H298.878V745.604C298.878 755.854 300.64 762.581 304.163 765.784C307.767 768.987 312.091 770.589 317.136 770.589C320.579 770.589 324.463 769.508 328.787 767.346C333.191 765.184 338.396 761.06 344.402 754.974V692.633C344.402 686.387 343.241 682.183 340.919 680.021C338.677 677.778 333.952 676.577 326.745 676.417V671.973H364.222ZM461.877 668.729V706.206H457.913C454.87 694.435 450.946 686.427 446.142 682.183C441.417 677.938 435.371 675.816 428.004 675.816C422.398 675.816 417.874 677.298 414.431 680.261C410.987 683.224 409.266 686.507 409.266 690.11C409.266 694.595 410.547 698.438 413.109 701.642C415.592 704.925 420.637 708.408 428.244 712.092L445.781 720.62C462.037 728.548 470.165 738.998 470.165 751.971C470.165 761.98 466.361 770.068 458.754 776.234C451.227 782.32 442.778 785.363 433.409 785.363C426.683 785.363 418.995 784.162 410.347 781.76C407.704 780.959 405.542 780.559 403.86 780.559C402.019 780.559 400.577 781.6 399.536 783.682H395.572V744.403H399.536C401.778 755.614 406.062 764.062 412.389 769.748C418.715 775.434 425.802 778.276 433.649 778.276C439.175 778.276 443.659 776.675 447.103 773.472C450.626 770.188 452.388 766.265 452.388 761.7C452.388 756.175 450.426 751.53 446.502 747.767C442.658 744.003 434.931 739.238 423.319 733.473C411.708 727.707 404.101 722.502 400.497 717.857C396.894 713.293 395.092 707.527 395.092 700.561C395.092 691.512 398.175 683.944 404.341 677.858C410.587 671.772 418.635 668.729 428.484 668.729C432.809 668.729 438.054 669.65 444.22 671.492C448.304 672.693 451.026 673.294 452.388 673.294C453.669 673.294 454.67 673.014 455.391 672.453C456.111 671.893 456.952 670.651 457.913 668.729H461.877ZM518.572 635.817V671.973H544.277V680.381H518.572V751.73C518.572 758.857 519.573 763.662 521.575 766.145C523.657 768.627 526.3 769.868 529.503 769.868C532.146 769.868 534.708 769.067 537.19 767.466C539.673 765.784 541.595 763.342 542.956 760.139H547.641C544.838 767.986 540.874 773.912 535.749 777.916C530.624 781.84 525.339 783.802 519.894 783.802C516.21 783.802 512.606 782.801 509.083 780.799C505.56 778.717 502.957 775.794 501.275 772.03C499.594 768.187 498.753 762.301 498.753 754.373V680.381H481.336V676.417C485.74 674.655 490.225 671.692 494.789 667.528C499.434 663.284 503.558 658.279 507.161 652.514C509.003 649.471 511.565 643.905 514.849 635.817H518.572ZM592.925 611.193V757.136C592.925 764.022 593.405 768.587 594.366 770.829C595.407 773.071 596.969 774.793 599.051 775.994C601.133 777.115 605.017 777.676 610.702 777.676V782H556.77V777.676C561.814 777.676 565.258 777.155 567.1 776.114C568.941 775.073 570.383 773.352 571.424 770.949C572.465 768.547 572.985 763.942 572.985 757.136V657.198C572.985 644.786 572.705 637.179 572.145 634.376C571.584 631.493 570.663 629.531 569.382 628.49C568.181 627.449 566.619 626.929 564.697 626.929C562.615 626.929 559.973 627.569 556.77 628.851L554.728 624.646L587.52 611.193H592.925ZM617.309 671.973H668.599V676.417H666.076C662.473 676.417 659.75 677.218 657.908 678.819C656.146 680.341 655.266 682.263 655.266 684.585C655.266 687.708 656.587 692.032 659.229 697.558L686.016 753.052L710.64 692.272C712.001 688.989 712.682 685.746 712.682 682.543C712.682 681.102 712.401 680.021 711.841 679.3C711.2 678.419 710.199 677.738 708.838 677.258C707.477 676.697 705.074 676.417 701.631 676.417V671.973H737.426V676.417C734.463 676.737 732.181 677.378 730.579 678.339C728.978 679.3 727.216 681.102 725.294 683.744C724.573 684.865 723.212 687.948 721.21 692.993L676.406 802.78C672.082 813.431 666.396 821.479 659.35 826.924C652.383 832.369 645.656 835.092 639.17 835.092C634.445 835.092 630.562 833.73 627.519 831.008C624.476 828.285 622.954 825.162 622.954 821.639C622.954 818.275 624.035 815.553 626.197 813.471C628.439 811.469 631.482 810.468 635.326 810.468C637.969 810.468 641.572 811.349 646.137 813.11C649.34 814.312 651.342 814.912 652.143 814.912C654.545 814.912 657.147 813.671 659.95 811.188C662.833 808.706 665.716 803.901 668.599 796.774L676.406 777.676L636.888 694.675C635.687 692.192 633.765 689.109 631.122 685.426C629.12 682.623 627.479 680.741 626.197 679.78C624.355 678.499 621.393 677.378 617.309 676.417V671.973Z" fill="#224E38"/>
<defs>
<clipPath id="clip0_2_332">
<rect width="278" height="282" fill="white" transform="matrix(2 0 0 2 142 30)"/>
</clipPath>
</defs>
</svg>
